# xmcd
#
# Track frame offsets:
#	150
#	12307
#	20875
#	33859
#	41393
#	49287
#	60475
#	70225
#	79929
#	92519
#	103479
#	112901
#	121013
#	128968
#	137401
#
# Disc length: 1934 seconds
#
# Revision: 1
# Processed by: cddbd v1.5.1PL0 Copyright (c) Steve Scherf et al.
# Submitted via: audiograbber 1.80
#
DISCID=c4078c0f
DTITLE=Adam Green - Gemstones
DYEAR=1900
DGENRE=
TTITLE0=Before my bedtime
TTITLE1=bible club
TTITLE2=Carolina
TTITLE3=Choke on a cock
TTITLE4=Chubby Princess
TTITLE5=Country Roads
TTITLE6=Crackhouse Blues
TTITLE7=Down on the Street
TTITLE8=Emily
TTITLE9=Gemstones
TTITLE10=He's the Brat
TTITLE11=Losing on a Tuesday
TTITLE12=Over the Sunrise
TTITLE13=Teddy Boys
TTITLE14=Who's your boyfriend
EXTD=
EXTT0=
EXTT1=
EXTT2=
EXTT3=
EXTT4=
EXTT5=
EXTT6=
EXTT7=
EXTT8=
EXTT9=
EXTT10=
EXTT11=
EXTT12=
EXTT13=
EXTT14=
PLAYORDER=
